<mxfile host="app.diagrams.net" modified="2022-03-24T11:15:25.966Z" agent="5.0 (Windows NT 10.0; Win64; x64) AppleWebKit/537.36 (KHTML, like Gecko) Chrome/99.0.4844.82 Safari/537.36" etag="k_0Qif5WCoJDcUopUKpK" version="17.1.5" type="github">
  <diagram id="5yjb5HcBnNFBzt9twdD1" name="第 1 页">
    <mxGraphModel dx="782" dy="428" grid="1" gridSize="10" guides="1" tooltips="1" connect="1" arrows="1" fold="1" page="1" pageScale="1" pageWidth="827" pageHeight="1169" math="0" shadow="0">
      <root>
        <mxCell id="0" />
        <mxCell id="1" parent="0" />
        <mxCell id="mblNS2z2RDlKWH5d42fy-1" value="用户" style="rounded=0;whiteSpace=wrap;html=1;fontSize=14;" parent="1" vertex="1">
          <mxGeometry x="50" y="350" width="110" height="60" as="geometry" />
        </mxCell>
        <mxCell id="mblNS2z2RDlKWH5d42fy-2" value="" style="endArrow=classic;html=1;rounded=0;fontSize=14;" parent="1" edge="1">
          <mxGeometry width="50" height="50" relative="1" as="geometry">
            <mxPoint x="160" y="370" as="sourcePoint" />
            <mxPoint x="310" y="370" as="targetPoint" />
          </mxGeometry>
        </mxCell>
        <mxCell id="mblNS2z2RDlKWH5d42fy-3" value="&lt;font style=&quot;font-size: 11px&quot;&gt;提交代码&lt;/font&gt;" style="text;html=1;resizable=0;autosize=1;align=center;verticalAlign=middle;points=[];fillColor=none;strokeColor=none;rounded=0;fontSize=14;" parent="1" vertex="1">
          <mxGeometry x="205" y="350" width="60" height="20" as="geometry" />
        </mxCell>
        <mxCell id="mblNS2z2RDlKWH5d42fy-4" value="3.1&lt;br&gt;测评" style="rounded=1;whiteSpace=wrap;html=1;fontSize=14;" parent="1" vertex="1">
          <mxGeometry x="310" y="350" width="120" height="60" as="geometry" />
        </mxCell>
        <mxCell id="mblNS2z2RDlKWH5d42fy-5" value="" style="endArrow=classic;html=1;rounded=0;fontSize=14;" parent="1" edge="1">
          <mxGeometry width="50" height="50" relative="1" as="geometry">
            <mxPoint x="430" y="370" as="sourcePoint" />
            <mxPoint x="560" y="370" as="targetPoint" />
          </mxGeometry>
        </mxCell>
        <mxCell id="mblNS2z2RDlKWH5d42fy-6" value="&lt;span style=&quot;font-size: 12px&quot;&gt;题目代码&lt;/span&gt;" style="text;html=1;resizable=0;autosize=1;align=center;verticalAlign=middle;points=[];fillColor=none;strokeColor=none;rounded=0;fontSize=14;" parent="1" vertex="1">
          <mxGeometry x="460" y="350" width="60" height="20" as="geometry" />
        </mxCell>
        <mxCell id="mblNS2z2RDlKWH5d42fy-7" value="" style="endArrow=classic;html=1;rounded=0;fontSize=12;entryX=0.575;entryY=-0.033;entryDx=0;entryDy=0;entryPerimeter=0;exitX=0.356;exitY=1.056;exitDx=0;exitDy=0;exitPerimeter=0;" parent="1" source="mblNS2z2RDlKWH5d42fy-8" target="mblNS2z2RDlKWH5d42fy-14" edge="1">
          <mxGeometry width="50" height="50" relative="1" as="geometry">
            <mxPoint x="560" y="395" as="sourcePoint" />
            <mxPoint x="480" y="420" as="targetPoint" />
          </mxGeometry>
        </mxCell>
        <mxCell id="mblNS2z2RDlKWH5d42fy-8" value="第三方算法网站" style="rounded=0;whiteSpace=wrap;html=1;fontSize=12;" parent="1" vertex="1">
          <mxGeometry x="560" y="350" width="120" height="60" as="geometry" />
        </mxCell>
        <mxCell id="mblNS2z2RDlKWH5d42fy-11" value="结果反馈" style="text;html=1;resizable=0;autosize=1;align=center;verticalAlign=middle;points=[];fillColor=none;strokeColor=none;rounded=0;fontSize=12;rotation=-30;" parent="1" vertex="1">
          <mxGeometry x="510" y="430" width="60" height="20" as="geometry" />
        </mxCell>
        <mxCell id="mblNS2z2RDlKWH5d42fy-15" value="" style="group;rotation=0;" parent="1" vertex="1" connectable="0">
          <mxGeometry x="460" y="480" width="80" height="30" as="geometry" />
        </mxCell>
        <mxCell id="mblNS2z2RDlKWH5d42fy-12" value="" style="endArrow=none;html=1;rounded=0;fontSize=11;" parent="mblNS2z2RDlKWH5d42fy-15" edge="1">
          <mxGeometry width="50" height="50" relative="1" as="geometry">
            <mxPoint y="20" as="sourcePoint" />
            <mxPoint x="80" y="20" as="targetPoint" />
          </mxGeometry>
        </mxCell>
        <mxCell id="mblNS2z2RDlKWH5d42fy-13" value="" style="endArrow=none;html=1;rounded=0;fontSize=11;" parent="mblNS2z2RDlKWH5d42fy-15" edge="1">
          <mxGeometry width="50" height="50" relative="1" as="geometry">
            <mxPoint y="30" as="sourcePoint" />
            <mxPoint x="80" y="30" as="targetPoint" />
          </mxGeometry>
        </mxCell>
        <mxCell id="mblNS2z2RDlKWH5d42fy-14" value="测评结果DB" style="text;html=1;resizable=0;autosize=1;align=center;verticalAlign=middle;points=[];fillColor=none;strokeColor=none;rounded=0;fontSize=11;" parent="mblNS2z2RDlKWH5d42fy-15" vertex="1">
          <mxGeometry width="80" height="20" as="geometry" />
        </mxCell>
        <mxCell id="mblNS2z2RDlKWH5d42fy-17" value="结果反馈" style="text;html=1;resizable=0;autosize=1;align=center;verticalAlign=middle;points=[];fillColor=none;strokeColor=none;rounded=0;fontSize=11;rotation=30;" parent="1" vertex="1">
          <mxGeometry x="414" y="430" width="60" height="20" as="geometry" />
        </mxCell>
        <mxCell id="mblNS2z2RDlKWH5d42fy-24" value="" style="endArrow=classic;html=1;rounded=0;fontSize=12;" parent="1" source="mblNS2z2RDlKWH5d42fy-14" edge="1">
          <mxGeometry width="50" height="50" relative="1" as="geometry">
            <mxPoint x="330" y="460" as="sourcePoint" />
            <mxPoint x="380" y="410" as="targetPoint" />
          </mxGeometry>
        </mxCell>
        <mxCell id="mblNS2z2RDlKWH5d42fy-25" value="" style="endArrow=classic;html=1;rounded=0;fontSize=12;exitX=0;exitY=0.75;exitDx=0;exitDy=0;entryX=1;entryY=0.75;entryDx=0;entryDy=0;" parent="1" source="mblNS2z2RDlKWH5d42fy-4" target="mblNS2z2RDlKWH5d42fy-1" edge="1">
          <mxGeometry width="50" height="50" relative="1" as="geometry">
            <mxPoint x="110" y="440" as="sourcePoint" />
            <mxPoint x="160" y="390" as="targetPoint" />
          </mxGeometry>
        </mxCell>
        <mxCell id="mblNS2z2RDlKWH5d42fy-26" value="结果反馈" style="text;html=1;resizable=0;autosize=1;align=center;verticalAlign=middle;points=[];fillColor=none;strokeColor=none;rounded=0;fontSize=12;" parent="1" vertex="1">
          <mxGeometry x="205" y="380" width="60" height="20" as="geometry" />
        </mxCell>
        <mxCell id="jJSC-uXd-z4bDxFatFrh-1" value="" style="endArrow=classic;html=1;rounded=0;startArrow=none;" edge="1" parent="1" source="jJSC-uXd-z4bDxFatFrh-7">
          <mxGeometry width="50" height="50" relative="1" as="geometry">
            <mxPoint x="610" y="350" as="sourcePoint" />
            <mxPoint x="610" y="260" as="targetPoint" />
          </mxGeometry>
        </mxCell>
        <mxCell id="jJSC-uXd-z4bDxFatFrh-6" value="" style="group" vertex="1" connectable="0" parent="1">
          <mxGeometry x="570" y="230" width="80" height="30" as="geometry" />
        </mxCell>
        <mxCell id="jJSC-uXd-z4bDxFatFrh-3" value="" style="endArrow=none;html=1;rounded=0;fontSize=11;" edge="1" parent="jJSC-uXd-z4bDxFatFrh-6">
          <mxGeometry width="50" height="50" relative="1" as="geometry">
            <mxPoint y="20" as="sourcePoint" />
            <mxPoint x="80" y="20" as="targetPoint" />
          </mxGeometry>
        </mxCell>
        <mxCell id="jJSC-uXd-z4bDxFatFrh-4" value="" style="endArrow=none;html=1;rounded=0;fontSize=11;" edge="1" parent="jJSC-uXd-z4bDxFatFrh-6">
          <mxGeometry width="50" height="50" relative="1" as="geometry">
            <mxPoint y="30" as="sourcePoint" />
            <mxPoint x="80" y="30" as="targetPoint" />
          </mxGeometry>
        </mxCell>
        <mxCell id="jJSC-uXd-z4bDxFatFrh-5" value="用户画像DB" style="text;html=1;resizable=0;autosize=1;align=center;verticalAlign=middle;points=[];fillColor=none;strokeColor=none;rounded=0;fontSize=11;" vertex="1" parent="jJSC-uXd-z4bDxFatFrh-6">
          <mxGeometry width="80" height="20" as="geometry" />
        </mxCell>
        <mxCell id="jJSC-uXd-z4bDxFatFrh-7" value="结果反馈" style="text;html=1;resizable=0;autosize=1;align=center;verticalAlign=middle;points=[];fillColor=none;strokeColor=none;rounded=0;fontSize=12;rotation=0;" vertex="1" parent="1">
          <mxGeometry x="580" y="300" width="60" height="20" as="geometry" />
        </mxCell>
        <mxCell id="jJSC-uXd-z4bDxFatFrh-8" value="" style="endArrow=none;html=1;rounded=0;" edge="1" parent="1" target="jJSC-uXd-z4bDxFatFrh-7">
          <mxGeometry width="50" height="50" relative="1" as="geometry">
            <mxPoint x="610" y="350" as="sourcePoint" />
            <mxPoint x="610" y="260" as="targetPoint" />
          </mxGeometry>
        </mxCell>
      </root>
    </mxGraphModel>
  </diagram>
</mxfile>
